<?xml version="1.0" standalone="no"?>
<!DOCTYPE svg PUBLIC "-//W3C//DTD SVG 20010904//EN"
 "http://www.w3.org/TR/2001/REC-SVG-20010904/DTD/svg10.dtd">
<svg version="1.0" xmlns="http://www.w3.org/2000/svg"
 width="260.000000pt" height="260.000000pt" viewBox="0 0 260.000000 260.000000"
 preserveAspectRatio="xMidYMid meet">
<metadata>
Created by potrace 1.14, written by Peter Selinger 2001-2017
</metadata>
<g transform="translate(0.000000,260.000000) scale(0.100000,-0.100000)"
fill="#000000" stroke="none">
<path d="M1145 2589 c-556 -75 -996 -485 -1110 -1034 -9 -44 -19 -136 -22
-205 -20 -462 207 -898 596 -1148 309 -198 700 -254 1071 -152 105 29 300 127
400 201 256 189 432 459 501 769 21 98 27 412 8 516 -43 245 -164 477 -347
666 -190 196 -421 322 -685 373 -101 20 -317 27 -412 14z m-310 -1239 c0 -226
-6 -248 -78 -281 -42 -18 -111 -24 -154 -13 -20 6 -23 13 -23 60 l0 54 46 -2
c71 -4 74 6 74 202 0 92 3 170 7 174 4 4 34 6 68 4 l60 -3 0 -195z m189 183
c2 -10 14 -79 26 -153 11 -74 24 -143 28 -154 5 -12 18 42 37 150 l30 169 85
0 85 0 30 -162 c17 -89 33 -164 36 -167 3 -3 16 61 29 142 32 201 27 192 100
192 33 0 60 -3 60 -7 0 -5 -23 -115 -52 -245 l-53 -238 -87 0 c-49 0 -88 3
-88 8 0 15 -59 325 -63 328 -2 2 -17 -72 -32 -166 l-29 -170 -87 0 -87 0 -7
33 c-4 17 -27 119 -51 226 -24 106 -44 202 -44 212 0 17 8 19 64 19 53 0 66
-3 70 -17z m726 -166 c5 -173 6 -179 29 -198 50 -41 107 -12 122 61 4 25 8
107 9 183 l0 138 63 -3 62 -3 3 -168 c1 -94 -2 -185 -8 -207 -26 -98 -174
-149 -301 -105 -102 36 -118 78 -119 301 0 94 3 174 7 178 4 4 34 6 68 4 l60
-3 5 -178z"/>
</g>
</svg>
