<?xml version="1.0" standalone="no"?>
<!DOCTYPE svg PUBLIC "-//W3C//DTD SVG 20010904//EN"
 "http://www.w3.org/TR/2001/REC-SVG-20010904/DTD/svg10.dtd">
<svg version="1.0" xmlns="http://www.w3.org/2000/svg"
 width="260.000000pt" height="260.000000pt" viewBox="0 0 260.000000 260.000000"
 preserveAspectRatio="xMidYMid meet">
<metadata>
Created by potrace 1.14, written by Peter Selinger 2001-2017
</metadata>
<g transform="translate(0.000000,260.000000) scale(0.100000,-0.100000)"
fill="#000000" stroke="none">
<path d="M1170 2583 c-139 -14 -345 -78 -470 -145 -228 -121 -429 -327 -545
-558 -72 -145 -118 -306 -132 -466 -3 -41 -10 -77 -14 -80 -12 -7 -11 -81 1
-89 5 -3 10 -27 10 -52 0 -65 35 -227 71 -330 40 -114 74 -179 148 -289 361
-536 1066 -722 1644 -433 176 89 344 229 459 382 483 650 259 1579 -466 1932
-219 107 -471 153 -706 128z m110 -152 c0 -14 -8 -21 -27 -23 -40 -5 -39 -25
1 -38 60 -19 62 -89 4 -109 -41 -14 -78 -4 -78 21 0 14 6 19 23 18 59 -5 63
10 10 37 -33 16 -38 23 -38 53 0 27 6 37 25 47 39 20 80 17 80 -6z m100 -76
c0 -95 0 -95 -25 -95 -28 0 -29 7 -18 123 5 56 9 67 24 67 17 0 19 -9 19 -95z
m-252 58 c-2 -9 -14 -20 -28 -23 -14 -3 -26 -13 -28 -22 -2 -12 4 -16 30 -15
40 2 46 -24 8 -33 -41 -10 -31 -35 13 -33 30 2 37 -1 37 -16 0 -15 -12 -22
-51 -31 -27 -7 -52 -10 -55 -7 -8 8 -44 171 -39 175 6 6 67 20 93 21 17 1 23
-4 20 -16z m437 3 c10 -7 16 -20 12 -28 -5 -13 -12 -14 -47 -4 -39 10 -43 9
-61 -13 -10 -13 -19 -30 -19 -39 0 -19 29 -52 45 -52 21 0 26 28 6 35 -13 4
-17 12 -14 25 3 10 10 17 16 15 7 -2 24 -6 40 -9 30 -7 32 -14 16 -68 -9 -34
-13 -38 -44 -38 -78 0 -122 43 -110 106 10 54 45 84 98 84 24 0 52 -6 62 -14z
m102 -24 c14 -9 21 -37 23 -92 l2 -35 20 48 c14 32 26 47 39 47 25 0 24 -18
-7 -106 -23 -63 -30 -75 -47 -72 -25 4 -34 21 -43 83 l-7 50 -14 -43 c-15 -44
-37 -62 -54 -45 -8 8 4 56 40 146 11 27 26 33 48 19z m-678 -48 c28 -35 28
-97 1 -124 -16 -16 -81 -50 -97 -50 -4 0 -18 32 -53 121 l-20 50 32 14 c18 8
52 14 75 15 33 0 46 -5 62 -26z m556 -258 c108 -37 204 -95 287 -175 58 -55
69 -71 70 -100 2 -67 -53 -88 -312 -122 -110 -15 -449 -14 -565 0 -258 33
-315 54 -315 119 0 77 198 226 371 281 92 29 100 30 249 27 117 -2 146 -6 215
-30z m823 -339 c19 -53 15 -101 -11 -125 -33 -31 -81 -38 -113 -17 -24 16 -71
101 -61 111 7 7 150 63 162 63 6 1 16 -14 23 -32z m-2021 -12 c80 -31 83 -33
72 -62 -6 -17 -17 -23 -37 -23 -16 0 -45 -3 -63 -7 l-34 -6 50 -17 c52 -17 60
-26 46 -49 -7 -11 -24 -8 -92 16 -46 17 -85 35 -86 40 -8 24 26 46 83 52 l59
7 -52 18 c-49 16 -63 32 -46 49 11 12 30 8 100 -18z m2087 -198 c5 -32 5 -52
-2 -59 -15 -15 -29 -3 -36 33 -8 41 -32 33 -28 -9 3 -26 0 -32 -17 -32 -13 0
-21 8 -23 22 -2 13 -11 24 -22 26 -16 4 -18 0 -12 -32 4 -20 5 -36 2 -36 -2 0
-11 -3 -19 -6 -12 -4 -18 8 -27 51 -6 31 -10 58 -8 59 8 7 145 34 163 33 15
-2 22 -13 29 -50z m-2210 24 c4 -5 2 -21 -4 -35 -26 -70 66 -119 101 -54 8 16
8 23 -2 29 -20 13 -29 11 -29 -6 0 -8 -9 -15 -20 -15 -22 0 -23 3 -14 50 7 30
8 31 43 25 65 -12 74 -22 67 -68 -7 -47 -52 -97 -87 -97 -55 0 -109 49 -109
99 0 53 37 101 54 72z m1120 -183 c16 -92 31 -166 33 -164 2 2 16 77 31 167
l28 164 67 3 c50 2 67 0 67 -10 -1 -7 -24 -116 -53 -243 l-53 -230 -89 0 -89
0 -31 170 -32 170 -12 -75 c-8 -41 -21 -118 -30 -170 l-16 -95 -90 0 -89 0
-47 210 c-26 116 -50 222 -53 238 l-5 27 69 0 c81 0 70 18 101 -177 13 -79 26
-140 30 -135 3 4 16 68 29 142 12 74 24 145 27 158 5 22 9 23 91 20 l86 -3 30
-167z m694 1 c2 -97 -1 -179 -8 -201 -26 -91 -100 -132 -228 -127 -65 3 -86 9
-119 31 -66 44 -73 69 -73 277 l0 181 65 0 65 0 1 -147 c0 -87 5 -162 12 -183
23 -67 101 -79 132 -20 12 22 15 65 15 189 l0 160 58 4 c31 1 62 2 67 2 6 -1
11 -66 13 -166z m-1200 -31 c-3 -172 -5 -197 -23 -228 -30 -52 -76 -71 -160
-68 l-70 3 -3 59 -3 58 34 -6 c26 -5 40 -2 58 13 23 19 24 24 27 190 l3 171
71 0 70 0 -4 -192z m1607 58 c9 -14 15 -37 13 -53 -4 -37 -32 -37 -36 0 -5 37
-25 34 -45 -8 -19 -39 -58 -55 -83 -34 -39 32 -42 109 -4 109 15 0 20 -7 20
-29 0 -17 5 -33 10 -36 6 -3 10 -3 10 2 0 4 9 23 20 41 25 41 71 45 95 8z
m-2098 -51 c1 -5 -1 -16 -6 -24 -7 -11 -27 -12 -95 -6 -76 6 -86 9 -86 26 0
18 7 20 92 17 50 -2 93 -7 95 -13z m-13 -87 c9 -12 16 -37 16 -55 0 -26 -4
-33 -19 -33 -14 0 -21 8 -23 27 -4 34 -24 41 -33 11 -26 -84 -115 -73 -115 14
0 32 3 38 21 38 13 0 20 -6 18 -17 -5 -50 15 -60 32 -16 15 41 29 53 60 53 17
0 34 -8 43 -22z m2124 -25 c3 -22 0 -23 -55 -23 -94 0 -133 10 -133 32 0 17 7
19 93 16 87 -3 92 -4 95 -25z m-65 -55 c33 -17 46 -39 47 -78 0 -59 -10 -80
-37 -80 -20 0 -24 4 -18 18 17 40 17 63 0 82 -32 36 -95 21 -95 -22 0 -22 26
-24 34 -3 11 30 36 17 36 -19 0 -43 -10 -50 -66 -41 l-44 6 0 44 c0 83 73 131
143 93z m-2029 -91 c5 -26 6 -50 3 -54 -4 -3 -43 -14 -88 -24 l-80 -17 -10 25
c-17 45 -16 87 3 91 11 2 18 -6 23 -27 9 -43 37 -42 33 1 -4 45 27 52 37 9 7
-34 7 -33 27 -26 9 4 13 17 10 41 -4 31 -2 35 14 32 14 -2 22 -17 28 -51z
m1972 -93 c63 -23 75 -30 72 -47 -4 -25 -21 -34 -83 -43 l-50 -7 43 -14 c45
-16 62 -37 45 -54 -13 -13 -167 43 -170 62 -5 27 14 39 73 47 l59 7 -47 18
c-34 13 -48 24 -48 38 0 25 17 24 106 -7z m-1954 -21 c20 -23 48 -78 48 -95 0
-7 -35 -27 -77 -43 -42 -17 -80 -31 -83 -33 -11 -4 -40 74 -40 106 1 49 41 81
101 82 22 0 42 -7 51 -17z m1159 -73 c57 -6 142 -18 189 -26 153 -27 170 -38
170 -106 0 -27 -11 -43 -65 -95 -237 -227 -591 -276 -885 -122 -122 63 -240
175 -240 225 0 46 39 73 125 89 224 42 500 55 706 35z m-608 -502 c11 -8 20
-33 24 -66 6 -58 14 -58 33 1 12 38 36 49 47 22 5 -15 -42 -161 -56 -169 -3
-2 -16 0 -28 5 -18 7 -23 16 -24 46 0 21 -4 47 -8 58 -7 16 -10 12 -23 -25
-15 -47 -25 -55 -47 -41 -12 8 -10 19 9 73 13 34 27 73 31 86 10 25 18 27 42
10z m828 -68 c16 -41 27 -80 25 -86 -6 -16 -91 -37 -121 -30 -48 12 -79 91
-54 138 11 21 85 59 107 55 8 -1 27 -36 43 -77z m-623 10 c62 0 95 -98 52
-153 -37 -46 -141 -45 -148 1 -4 25 6 27 42 11 58 -27 106 59 54 95 -12 8 -25
13 -30 10 -14 -9 -9 -34 7 -34 8 0 15 -9 15 -20 0 -21 -16 -25 -59 -13 -21 5
-23 10 -17 50 8 57 14 66 40 59 11 -3 31 -6 44 -6z m446 -76 c10 -47 16 -87
14 -88 -2 -2 -25 -8 -52 -15 -40 -10 -51 -10 -57 1 -14 22 -10 27 26 34 42 8
41 30 -1 27 -25 -2 -43 10 -44 29 0 3 14 9 31 13 43 10 36 39 -11 39 -45 1
-48 28 -5 37 81 17 81 18 99 -77z m-320 60 c13 -5 16 -23 16 -95 0 -88 0 -89
-25 -89 -23 0 -25 4 -25 43 0 45 11 147 16 147 1 0 9 -3 18 -6z m166 -17 c0
-20 -4 -23 -29 -19 -45 6 -46 -15 -1 -38 34 -18 40 -25 40 -53 0 -44 -15 -57
-67 -57 -36 0 -43 3 -43 20 0 16 7 20 30 20 40 0 38 17 -5 37 -31 15 -35 21
-35 54 0 44 17 58 73 59 32 0 37 -3 37 -23z"/>
<path d="M880 2323 c0 -7 31 -95 36 -101 1 -2 11 1 22 7 50 26 28 101 -28 101
-17 0 -30 -3 -30 -7z"/>
<path d="M2270 1704 c-45 -20 -46 -21 -25 -44 34 -38 95 -19 95 30 0 35 -15
38 -70 14z"/>
<path d="M303 950 c-24 -10 -41 -56 -26 -71 13 -13 103 19 103 36 0 13 -37 46
-50 44 -3 0 -15 -4 -27 -9z"/>
<path d="M1662 358 c-31 -31 -1 -98 45 -98 30 0 32 7 13 58 -19 49 -37 61 -58
40z"/>
</g>
</svg>
