<svg width="32" height="25" viewBox="0 0 32 25" fill="none" xmlns="http://www.w3.org/2000/svg">
<path d="M27.2069 2.82499C27.1984 2.80785 27.1839 2.79499 27.1662 2.78749C25.1235 1.85052 22.9684 1.18195 20.7543 0.799452C20.713 0.791952 20.6712 0.811238 20.6514 0.848202C20.3578 1.3807 20.0916 1.9282 19.8532 2.48749C17.4666 2.12535 15.0387 2.12535 12.6516 2.48749C12.4116 1.9266 12.141 1.3791 11.841 0.848202C11.8202 0.81231 11.7789 0.793024 11.7382 0.799452C9.52355 1.18142 7.36837 1.84945 5.32623 2.78749C5.30855 2.79499 5.29408 2.80731 5.2839 2.82392C1.20015 8.92195 0.0815824 14.8705 0.630154 20.7452C0.633368 20.7741 0.647832 20.8009 0.670868 20.8191C3.0489 22.58 5.70873 23.9236 8.53676 24.7936C8.57748 24.8059 8.6214 24.7914 8.64712 24.7571C9.25462 23.9305 9.79248 23.0557 10.2564 22.1407C10.281 22.0914 10.2618 22.0314 10.2125 22.0068C10.2087 22.0052 10.2055 22.0036 10.2018 22.002C9.35319 21.6773 8.5314 21.2857 7.74444 20.8314C7.69623 20.803 7.68015 20.7414 7.70855 20.6932C7.71498 20.682 7.72408 20.6718 7.73426 20.6637C7.89926 20.54 8.0648 20.4114 8.2223 20.2812C8.25069 20.2577 8.29033 20.2523 8.32408 20.2673C13.4793 22.6202 19.0603 22.6202 24.1544 20.2673C24.1882 20.2512 24.2284 20.2561 24.2573 20.2796C24.4148 20.4098 24.5803 20.5395 24.7464 20.6632C24.7909 20.6964 24.8 20.7596 24.7668 20.8046C24.7587 20.8153 24.7491 20.8239 24.7378 20.8309C23.953 21.2895 23.1302 21.6805 22.2794 22.0003C22.2275 22.0202 22.2018 22.078 22.221 22.13C22.2221 22.1337 22.2237 22.137 22.2259 22.1402C22.6973 23.0498 23.2346 23.9241 23.8335 24.7555C23.8587 24.7903 23.9032 24.8053 23.9439 24.793C26.7768 23.9262 29.4414 22.5821 31.8221 20.8186C31.8457 20.8014 31.8607 20.7752 31.8634 20.7462C32.5202 13.9545 30.7635 8.05463 27.2064 2.82445L27.2069 2.82499ZM11.0262 17.1682C9.47426 17.1682 8.19551 15.7437 8.19551 13.9946C8.19551 12.2455 9.44962 10.8211 11.0262 10.8211C12.6028 10.8211 13.8821 12.2578 13.8569 13.9946C13.8569 15.7437 12.6028 17.1682 11.0262 17.1682ZM21.493 17.1682C19.941 17.1682 18.6623 15.7437 18.6623 13.9946C18.6623 12.2455 19.9164 10.8211 21.493 10.8211C23.0696 10.8211 24.3489 12.2578 24.3237 13.9946C24.3237 15.7437 23.0819 17.1682 21.493 17.1682Z" fill="#4ADBFF"/>
</svg>
