<svg width="25" height="25" viewBox="0 0 25 25" fill="none" xmlns="http://www.w3.org/2000/svg">
<path d="M12.5005 6.64456C9.09452 6.64456 6.34722 9.39185 6.34722 12.7979C6.34722 16.2039 9.09452 18.9511 12.5005 18.9511C15.9065 18.9511 18.6538 16.2039 18.6538 12.7979C18.6538 9.39185 15.9065 6.64456 12.5005 6.64456ZM12.5005 16.7983C10.2995 16.7983 8.50007 15.0043 8.50007 12.7979C8.50007 10.5914 10.2941 8.79741 12.5005 8.79741C14.7069 8.79741 16.501 10.5914 16.501 12.7979C16.501 15.0043 14.7016 16.7983 12.5005 16.7983ZM20.3408 6.39285C20.3408 7.1908 19.6981 7.82809 18.9055 7.82809C18.1129 7.82809 17.4703 7.18545 17.4703 6.39285C17.4703 5.60026 18.1129 4.95762 18.9055 4.95762C19.6981 4.95762 20.3408 5.60026 20.3408 6.39285ZM24.4162 7.84951C24.3251 5.92694 23.886 4.22394 22.4775 2.82083C21.0739 1.41773 19.3709 0.978059 17.4483 0.882198C15.4668 0.769736 9.52777 0.769736 7.54629 0.882198C5.62907 0.973239 3.92607 1.41238 2.51761 2.81548C1.10916 4.21858 0.675372 5.92158 0.578976 7.84362C0.466513 9.8251 0.466513 15.7642 0.578976 17.7457C0.670017 19.6682 1.10916 21.3712 2.51761 22.7743C3.92607 24.1774 5.62372 24.6166 7.54629 24.713C9.52777 24.8254 15.4668 24.8254 17.4483 24.713C19.3709 24.6219 21.0739 24.1828 22.477 22.7743C23.8801 21.3712 24.3192 19.6682 24.4156 17.7457C24.5281 15.7642 24.5281 9.83045 24.4156 7.84897L24.4162 7.84951ZM21.8563 19.8723C21.4386 20.9219 20.6299 21.7306 19.5749 22.1536C17.9951 22.7802 14.2464 22.6356 12.5005 22.6356C10.7547 22.6356 7.00058 22.7749 5.4261 22.1536C4.37645 21.7359 3.5678 20.9273 3.14472 19.8723C2.51815 18.2924 2.66274 14.5437 2.66274 12.7979C2.66274 11.052 2.5235 7.29791 3.14472 5.72343C3.56244 4.67379 4.3711 3.86513 5.4261 3.44206C7.00593 2.81548 10.7547 2.96007 12.5005 2.96007C14.2464 2.96007 18.0005 2.82083 19.5749 3.44206C20.6246 3.85977 21.4332 4.66843 21.8563 5.72343C22.4829 7.30326 22.3383 11.052 22.3383 12.7979C22.3383 14.5437 22.4829 18.2978 21.8563 19.8723Z" fill="#4ADBFF"/>
</svg>
