<?xml version="1.0" encoding="utf-8"?>
<!-- Generator: Adobe Illustrator 27.4.0, SVG Export Plug-In . SVG Version: 6.00 Build 0)  -->
<svg version="1.1" id="Layer_1" xmlns="http://www.w3.org/2000/svg" xmlns:xlink="http://www.w3.org/1999/xlink" x="0px" y="0px"
	 viewBox="0 0 449.6 91.1" style="enable-background:new 0 0 449.6 91.1;" xml:space="preserve">
<style type="text/css">
	.st0{fill:#FFFFFF;stroke:#010101;stroke-width:8;stroke-miterlimit:10;}
	.st1{fill:#010101;stroke:#010101;stroke-width:8;stroke-linejoin:round;stroke-miterlimit:10;}
	.st2{fill:none;stroke:#010101;stroke-width:8;stroke-miterlimit:10;}
	.st3{fill:none;stroke:#E46BA8;stroke-width:8;stroke-miterlimit:10;}
</style>
<rect x="8" y="33.8" transform="matrix(3.415248e-07 -1 1 3.415248e-07 -4.9954 86.0944)" class="st0" width="65" height="23.4"/>
<polyline class="st1" points="0,66.8 28.7,66.8 28.7,24.2 0,24.2 "/>
<path class="st0" d="M81.1,4.6c-9.6,7.2-19.2,14.3-28.9,21.5l0,38.9c9.6,7.2,19.2,14.3,28.9,21.5c26.6-12.3,53.3-24.7,79.9-37.1
	l0-7.7C134.4,29.3,107.7,17,81.1,4.6z"/>
<line class="st2" x1="164.7" y1="45.5" x2="105.2" y2="45.5"/>
<circle class="st1" cx="100.4" cy="45.5" r="6.2"/>
<line class="st3" x1="184.8" y1="45.5" x2="449.6" y2="45.5"/>
</svg>
