<?xml version="1.0" encoding="utf-8"?>
<!-- Generator: Adobe Illustrator 27.4.0, SVG Export Plug-In . SVG Version: 6.00 Build 0)  -->
<svg version="1.1" id="Layer_1" xmlns="http://www.w3.org/2000/svg" xmlns:xlink="http://www.w3.org/1999/xlink" x="0px" y="0px"
	 viewBox="0 0 1086.7 1931.9" style="enable-background:new 0 0 1086.7 1931.9;" xml:space="preserve">
<style type="text/css">
	.st0{fill:none;}
	.st1{fill:#010101;}
	
		.st2{clip-path:url(#SVGID_00000139291829389279535940000001342696837156106626_);fill:#FBAD18;stroke:#010101;stroke-width:9;stroke-miterlimit:10;}
	
		.st3{clip-path:url(#SVGID_00000139291829389279535940000001342696837156106626_);fill:none;stroke:#010101;stroke-width:8;stroke-miterlimit:10;}
	
		.st4{clip-path:url(#SVGID_00000139291829389279535940000001342696837156106626_);fill:none;stroke:#010101;stroke-width:9;stroke-miterlimit:10;}
	
		.st5{clip-path:url(#SVGID_00000139291829389279535940000001342696837156106626_);fill:#010101;stroke:#010101;stroke-width:9;stroke-miterlimit:10;}
	.st6{clip-path:url(#SVGID_00000139291829389279535940000001342696837156106626_);fill:#010101;}
	
		.st7{clip-path:url(#SVGID_00000139291829389279535940000001342696837156106626_);fill:#010101;stroke:#FFFFFF;stroke-width:9;stroke-miterlimit:10;}
	
		.st8{clip-path:url(#SVGID_00000139291829389279535940000001342696837156106626_);fill:#010101;stroke:#010101;stroke-width:8;stroke-miterlimit:10;}
	
		.st9{clip-path:url(#SVGID_00000139291829389279535940000001342696837156106626_);fill:#E46BA8;stroke:#010101;stroke-width:9;stroke-miterlimit:10;}
	
		.st10{clip-path:url(#SVGID_00000139291829389279535940000001342696837156106626_);fill:url(#SVGID_00000085959104121250125860000005164035991912822152_);stroke:#010101;stroke-width:9;stroke-miterlimit:10;}
	.st11{clip-path:url(#SVGID_00000139291829389279535940000001342696837156106626_);fill:#64CDF0;}
	.st12{clip-path:url(#SVGID_00000139291829389279535940000001342696837156106626_);fill:#5478BB;}
	
		.st13{clip-path:url(#SVGID_00000139291829389279535940000001342696837156106626_);fill:none;stroke:#010101;stroke-width:9;stroke-linejoin:round;stroke-miterlimit:10;}
	.st14{clip-path:url(#SVGID_00000139291829389279535940000001342696837156106626_);}
	.st15{fill:none;stroke:#010101;stroke-width:9;stroke-miterlimit:10;}
	
		.st16{clip-path:url(#SVGID_00000139291829389279535940000001342696837156106626_);fill:#FFFFFF;stroke:#010101;stroke-width:8;stroke-miterlimit:10;}
	
		.st17{clip-path:url(#SVGID_00000139291829389279535940000001342696837156106626_);fill:none;stroke:#010101;stroke-width:8;stroke-linejoin:round;stroke-miterlimit:10;}
	
		.st18{clip-path:url(#SVGID_00000139291829389279535940000001342696837156106626_);fill:#5478BB;stroke:#010101;stroke-width:9;stroke-miterlimit:10;}
	
		.st19{clip-path:url(#SVGID_00000139291829389279535940000001342696837156106626_);fill:none;stroke:#010101;stroke-width:9;stroke-linecap:round;stroke-linejoin:round;stroke-miterlimit:10;}
	
		.st20{clip-path:url(#SVGID_00000139291829389279535940000001342696837156106626_);fill:none;stroke:#010101;stroke-width:8;stroke-linecap:round;stroke-linejoin:round;stroke-miterlimit:10;}
	
		.st21{clip-path:url(#SVGID_00000139291829389279535940000001342696837156106626_);fill:#64CDF0;stroke:#010101;stroke-width:9;stroke-miterlimit:10;}
	
		.st22{clip-path:url(#SVGID_00000139291829389279535940000001342696837156106626_);fill:#FFFFFF;stroke:#010101;stroke-width:9;stroke-miterlimit:10;}
	.st23{fill:#010101;stroke:#010101;stroke-width:9;stroke-miterlimit:10;}
	
		.st24{clip-path:url(#SVGID_00000139291829389279535940000001342696837156106626_);fill:#F04924;stroke:#010101;stroke-width:9;stroke-linejoin:round;stroke-miterlimit:10;}
	.st25{fill:#FFFFFF;stroke:#010101;stroke-width:9;stroke-miterlimit:10;}
	.st26{fill:none;stroke:#FFFFFF;stroke-width:9;stroke-miterlimit:10;}
	
		.st27{clip-path:url(#SVGID_00000139291829389279535940000001342696837156106626_);fill:#C8C8C8;stroke:#010101;stroke-width:9;stroke-miterlimit:10;}
	
		.st28{clip-path:url(#SVGID_00000139291829389279535940000001342696837156106626_);fill:#676767;stroke:#010101;stroke-width:9;stroke-miterlimit:10;}
	.st29{fill:#FFFFFF;stroke:#010101;stroke-width:12;stroke-miterlimit:10;}
	.st30{fill:#010101;stroke:#010101;stroke-width:19;stroke-miterlimit:10;}
	.st31{fill:#FFFFFF;}
	.st32{font-family:'Degular-Bold';}
	.st33{font-size:22.9188px;}
	.st34{letter-spacing:1;}
	
		.st35{clip-path:url(#SVGID_00000139291829389279535940000001342696837156106626_);fill:none;stroke:#FFFFFF;stroke-width:6.7081;stroke-miterlimit:10;}
	
		.st36{clip-path:url(#SVGID_00000139291829389279535940000001342696837156106626_);fill:#7D3B96;stroke:#010101;stroke-width:9;stroke-miterlimit:10;}
	
		.st37{clip-path:url(#SVGID_00000139291829389279535940000001342696837156106626_);fill:#FFFFFF;stroke:#FFFFFF;stroke-width:12;stroke-miterlimit:10;}
	
		.st38{clip-path:url(#SVGID_00000139291829389279535940000001342696837156106626_);fill:#010101;stroke:#010101;stroke-width:12;stroke-miterlimit:10;}
	
		.st39{clip-path:url(#SVGID_00000139291829389279535940000001342696837156106626_);fill:#FFFFFF;stroke:#010101;stroke-width:9;stroke-linejoin:round;stroke-miterlimit:10;}
	.st40{fill:#F04924;stroke:#010101;stroke-width:9;stroke-linejoin:round;stroke-miterlimit:10;}
	.st41{fill:#010101;stroke:#FFFFFF;stroke-width:4;stroke-miterlimit:10;}
	.st42{fill:#FFFFFF;stroke:#010101;stroke-width:6;stroke-miterlimit:10;}
	.st43{clip-path:url(#SVGID_00000139291829389279535940000001342696837156106626_);fill:#676767;}
	
		.st44{clip-path:url(#SVGID_00000139291829389279535940000001342696837156106626_);fill:#FFFFFF;stroke:#010101;stroke-width:8;stroke-linejoin:round;stroke-miterlimit:10;}
	
		.st45{clip-path:url(#SVGID_00000139291829389279535940000001342696837156106626_);fill:url(#SVGID_00000096052127952660774540000016211092646854037671_);stroke:#010101;stroke-width:9;stroke-miterlimit:10;}
	.st46{fill:#7D3B96;stroke:#010101;stroke-width:9;stroke-miterlimit:10;}
	.st47{fill:#FFFFFF;stroke:#010101;stroke-width:9;stroke-linejoin:round;stroke-miterlimit:10;}
	.st48{fill:none;stroke:#010101;stroke-width:9;stroke-linejoin:round;stroke-miterlimit:10;}
	.st49{clip-path:url(#SVGID_00000139291829389279535940000001342696837156106626_);fill:#E46BA8;}
	
		.st50{clip-path:url(#SVGID_00000139291829389279535940000001342696837156106626_);fill:#010101;stroke:#010101;stroke-width:9;stroke-linejoin:round;stroke-miterlimit:10;}
	.st51{fill:#FFFFFF;stroke:#020202;stroke-width:6;stroke-miterlimit:10;}
</style>
<pattern  x="1911.8" y="968.2" width="251.9" height="143.9" patternUnits="userSpaceOnUse" id="New_Pattern" viewBox="36 -179.9 251.9 143.9" style="overflow:visible;">
	<g>
		<rect x="36" y="-179.9" class="st0" width="251.9" height="143.9"/>
		<circle class="st1" cx="287.9" cy="-36" r="36"/>
		<circle class="st1" cx="36" cy="-36" r="36"/>
		<circle class="st1" cx="287.9" cy="-179.9" r="36"/>
		<circle class="st1" cx="161.9" cy="-107.9" r="36"/>
		<circle class="st1" cx="36" cy="-179.9" r="36"/>
	</g>
</pattern>
<g>
	<defs>
		<rect id="SVGID_1_" width="1086.7" height="1931.9"/>
	</defs>
	<clipPath id="SVGID_00000031181201594276593210000006434047789635782815_">
		<use xlink:href="#SVGID_1_"  style="overflow:visible;"/>
	</clipPath>
	
		<rect x="-13.8" y="1455.7" style="clip-path:url(#SVGID_00000031181201594276593210000006434047789635782815_);fill:#FBAD18;stroke:#010101;stroke-width:9;stroke-miterlimit:10;" width="352.3" height="321.1"/>
	
		<rect x="984.5" y="82.3" transform="matrix(3.267949e-07 1 -1 3.267949e-07 1194.0616 -913.741)" style="clip-path:url(#SVGID_00000031181201594276593210000006434047789635782815_);fill:none;stroke:#010101;stroke-width:8;stroke-miterlimit:10;" width="138.8" height="115.7"/>
	
		<rect x="979.9" y="63.2" transform="matrix(3.267949e-07 1 -1 3.267949e-07 1189.4266 -909.106)" style="clip-path:url(#SVGID_00000031181201594276593210000006434047789635782815_);fill:none;stroke:#010101;stroke-width:9;stroke-miterlimit:10;" width="138.8" height="154"/>
	
		<rect x="992.7" y="208" transform="matrix(6.123234e-17 -1 1 6.123234e-17 783.1543 1208.9907)" style="clip-path:url(#SVGID_00000031181201594276593210000006434047789635782815_);fill:#010101;stroke:#010101;stroke-width:9;stroke-miterlimit:10;" width="6.7" height="9.9"/>
	
		<rect x="992.7" y="62.5" transform="matrix(6.123234e-17 -1 1 6.123234e-17 928.6697 1063.4753)" style="clip-path:url(#SVGID_00000031181201594276593210000006434047789635782815_);fill:#010101;stroke:#010101;stroke-width:9;stroke-miterlimit:10;" width="6.7" height="9.9"/>
	
		<rect x="941.6" y="125.2" transform="matrix(3.267949e-07 1 -1 3.267949e-07 1151.2188 -870.8981)" style="clip-path:url(#SVGID_00000031181201594276593210000006434047789635782815_);fill:#010101;" width="138.8" height="30"/>
	
		<line style="clip-path:url(#SVGID_00000031181201594276593210000006434047789635782815_);fill:#010101;stroke:#FFFFFF;stroke-width:9;stroke-miterlimit:10;" x1="996.1" y1="70.7" x2="1027.8" y2="102.5"/>
	
		<line style="clip-path:url(#SVGID_00000031181201594276593210000006434047789635782815_);fill:#010101;stroke:#FFFFFF;stroke-width:9;stroke-miterlimit:10;" x1="996.1" y1="124.3" x2="1027.8" y2="156"/>
	
		<line style="clip-path:url(#SVGID_00000031181201594276593210000006434047789635782815_);fill:#010101;stroke:#010101;stroke-width:8;stroke-miterlimit:10;" x1="996.1" y1="151.9" x2="1027.8" y2="183.6"/>
	
		<line style="clip-path:url(#SVGID_00000031181201594276593210000006434047789635782815_);fill:#010101;stroke:#FFFFFF;stroke-width:9;stroke-miterlimit:10;" x1="996.1" y1="151.9" x2="1027.8" y2="183.6"/>
	
		<line style="clip-path:url(#SVGID_00000031181201594276593210000006434047789635782815_);fill:#010101;stroke:#010101;stroke-width:8;stroke-miterlimit:10;" x1="996.1" y1="98.3" x2="1027.8" y2="130.1"/>
	
		<line style="clip-path:url(#SVGID_00000031181201594276593210000006434047789635782815_);fill:#010101;stroke:#FFFFFF;stroke-width:9;stroke-miterlimit:10;" x1="996.1" y1="98.3" x2="1027.8" y2="130.1"/>
	
		<line style="clip-path:url(#SVGID_00000031181201594276593210000006434047789635782815_);fill:#010101;stroke:#FFFFFF;stroke-width:9;stroke-miterlimit:10;" x1="996.1" y1="177.8" x2="1027.8" y2="209.6"/>
	
		<rect x="941.6" y="125.2" transform="matrix(3.267949e-07 1 -1 3.267949e-07 1151.2188 -870.8981)" style="clip-path:url(#SVGID_00000031181201594276593210000006434047789635782815_);fill:none;stroke:#010101;stroke-width:9;stroke-miterlimit:10;" width="138.8" height="30"/>
	
		<rect x="999.5" y="97.3" transform="matrix(3.267949e-07 1 -1 3.267949e-07 1209.0477 -928.7271)" style="clip-path:url(#SVGID_00000031181201594276593210000006434047789635782815_);fill:#E46BA8;stroke:#010101;stroke-width:9;stroke-miterlimit:10;" width="138.8" height="85.7"/>
	
		<pattern  id="SVGID_00000044886797657353087000000010300200877421924010_" xlink:href="#New_Pattern" patternTransform="matrix(0.1435 0 0 0.1435 -8268.5947 -5896.9785)">
	</pattern>
	
		<path style="clip-path:url(#SVGID_00000031181201594276593210000006434047789635782815_);fill:url(#SVGID_00000044886797657353087000000010300200877421924010_);stroke:#010101;stroke-width:9;stroke-miterlimit:10;" d="
		M1099.7,284.2c-17.3-2.3-46.1-4.6-80.6,0.9c-88.2,14-120.6,64.2-198.1,69c-19.8,1.2-50.6,0-89.6-15.2
		c-0.4,59.9-0.8,119.8-1.1,179.8c123.1,0,246.3,0,369.4,0C1099.7,440.5,1099.7,362.4,1099.7,284.2z"/>
	<polygon style="clip-path:url(#SVGID_00000031181201594276593210000006434047789635782815_);fill:#64CDF0;" points="886.8,442.5 
		885.8,288.7 873.2,302.1 849.9,300 842.3,274.9 845.7,208.6 853.1,197.9 863.8,189.1 879,185.4 886.8,172.6 895.1,165.9 
		907.6,163.7 910.8,161.7 929.5,190 928.5,462.3 	"/>
	<polygon style="clip-path:url(#SVGID_00000031181201594276593210000006434047789635782815_);fill:#5478BB;" points="955.9,380.6 
		967.9,374.7 973.8,347.7 973.1,123.1 953.7,125.4 934.6,140.2 929.4,163.3 929.4,365.6 941.2,379.3 	"/>
	
		<line style="clip-path:url(#SVGID_00000031181201594276593210000006434047789635782815_);fill:none;stroke:#010101;stroke-width:9;stroke-linejoin:round;stroke-miterlimit:10;" x1="886.8" y1="272.4" x2="886.8" y2="427.8"/>
	
		<polyline style="clip-path:url(#SVGID_00000031181201594276593210000006434047789635782815_);fill:none;stroke:#010101;stroke-width:9;stroke-linejoin:round;stroke-miterlimit:10;" points="
		929.2,185.4 892.1,135 826.7,183.1 844,206.7 844,210.8 844,282.2 	"/>
	
		<path style="clip-path:url(#SVGID_00000031181201594276593210000006434047789635782815_);fill:#010101;stroke:#010101;stroke-width:9;stroke-miterlimit:10;" d="
		M892.1,135l-21.8-29.5c-11.4,2.2-22.7,4.4-34.1,6.6c-13.3-16.5-21.4-26.1-34.7-42.6l-10.3,7.6c11.8,17.6,18.4,28.3,30.2,45.9
		l-16.5,30.6l21.8,29.5L892.1,135z"/>
	<g style="clip-path:url(#SVGID_00000031181201594276593210000006434047789635782815_);">
		<path class="st15" d="M911.6,162.6c-8.2,6-13.4-1.1-21.6,4.9c-8.2,6-2.9,13.2-11.1,19.2c-8.2,6-13.4-1.1-21.6,4.9
			c-8.2,6-2.9,13.2-11.1,19.2"/>
	</g>
	
		<rect x="812.6" y="140.2" transform="matrix(0.8054 -0.5927 0.5927 0.8054 76.7163 534.9952)" style="clip-path:url(#SVGID_00000031181201594276593210000006434047789635782815_);fill:#FFFFFF;stroke:#010101;stroke-width:8;stroke-miterlimit:10;" width="81.2" height="20.9"/>
	
		<path style="clip-path:url(#SVGID_00000031181201594276593210000006434047789635782815_);fill:none;stroke:#010101;stroke-width:8;stroke-linejoin:round;stroke-miterlimit:10;" d="
		M841.6,203.4"/>
	
		<circle style="clip-path:url(#SVGID_00000031181201594276593210000006434047789635782815_);fill:#5478BB;stroke:#010101;stroke-width:9;stroke-miterlimit:10;" cx="865.5" cy="341.9" r="21.3"/>
	
		<path style="clip-path:url(#SVGID_00000031181201594276593210000006434047789635782815_);fill:#010101;stroke:#010101;stroke-width:9;stroke-miterlimit:10;" d="
		M972.3,437.6v81h-42.6v-81c0-11.8,9.5-21.3,21.3-21.3S972.3,425.8,972.3,437.6z"/>
	
		<path style="clip-path:url(#SVGID_00000031181201594276593210000006434047789635782815_);fill:#010101;stroke:#010101;stroke-width:9;stroke-miterlimit:10;" d="
		M730.3,402.7c17.3-2.3,46.1-4.6,80.6,0.9c88.2,14,120.6,64.2,198.1,69c19.8,1.2,50.6,0,89.6-15.2c0.4,59.9,0.8,42.3,1.1,102.2
		c-123.1,0-246.3,0-369.4,0C730.3,481.4,730.3,480.8,730.3,402.7z"/>
	
		<path style="clip-path:url(#SVGID_00000031181201594276593210000006434047789635782815_);fill:none;stroke:#010101;stroke-width:9;stroke-linecap:round;stroke-linejoin:round;stroke-miterlimit:10;" d="
		M972.3,125.4h-7c-19.7,0-35.7,16-35.7,35.7v31.3v37.7v232.1"/>
	
		<polyline style="clip-path:url(#SVGID_00000031181201594276593210000006434047789635782815_);fill:none;stroke:#010101;stroke-width:8;stroke-linecap:round;stroke-linejoin:round;stroke-miterlimit:10;" points="
		972.3,112 972.3,289.7 972.3,358.8 	"/>
	
		<path style="clip-path:url(#SVGID_00000031181201594276593210000006434047789635782815_);fill:none;stroke:#010101;stroke-width:8;stroke-miterlimit:10;" d="
		M929.6,358.4c0,11.8,9.6,21.4,21.4,21.4s21.4-9.6,21.4-21.4"/>
	
		<path style="clip-path:url(#SVGID_00000031181201594276593210000006434047789635782815_);fill:none;stroke:#010101;stroke-width:9;stroke-miterlimit:10;" d="
		M844,282.2c0,11.8,9.6,21.4,21.4,21.4s21.4-9.6,21.4-21.4"/>
	
		<rect x="338.9" y="1455.7" style="clip-path:url(#SVGID_00000031181201594276593210000006434047789635782815_);fill:#64CDF0;stroke:#010101;stroke-width:9;stroke-miterlimit:10;" width="485.5" height="205.4"/>
	
		<line style="clip-path:url(#SVGID_00000031181201594276593210000006434047789635782815_);fill:#010101;stroke:#010101;stroke-width:9;stroke-miterlimit:10;" x1="730.3" y1="686.2" x2="730.3" y2="7.9"/>
	
		<line style="clip-path:url(#SVGID_00000031181201594276593210000006434047789635782815_);fill:#010101;stroke:#010101;stroke-width:9;stroke-miterlimit:10;" x1="220.4" y1="559.6" x2="220.4" y2="-13.5"/>
	
		<path style="clip-path:url(#SVGID_00000031181201594276593210000006434047789635782815_);fill:#FFFFFF;stroke:#010101;stroke-width:9;stroke-miterlimit:10;" d="
		M220.6,404.3v225.5c0,5.2-0.5,10.3-1.6,15.2c-5.9,28.2-27.9,49.2-54,49.2s-48.1-21-54-49.2c-1-4.9-1.6-10-1.6-15.2
		c0,5.2-0.5,10.3-1.6,15.2c-5.9,28.2-27.9,49.2-54,49.2c-26.2,0-48.1-21-54-49.2c-0.8-3.6-1.2-7.3-1.4-11.1V404.3H220.6z"/>
	<g style="clip-path:url(#SVGID_00000031181201594276593210000006434047789635782815_);">
		<path class="st23" d="M109.4,442.1c0,30.7-24.9,55.6-55.6,55.6c-30.7,0-55.6-24.9-55.6-55.6"/>
		<path class="st23" d="M220.6,442.1c0,30.7-24.9,55.6-55.6,55.6c-30.7,0-55.6-24.9-55.6-55.6"/>
		<rect x="-1.7" y="247.5" class="st23" width="222.3" height="207.7"/>
	</g>
	
		<path style="clip-path:url(#SVGID_00000031181201594276593210000006434047789635782815_);fill:#F04924;stroke:#010101;stroke-width:9;stroke-linejoin:round;stroke-miterlimit:10;" d="
		M220.6,54.5v194.6c0,4.5-0.5,8.9-1.6,13.1c-5.9,24.4-27.9,42.5-54,42.5s-48.1-18.1-54-42.5c-1-4.2-1.6-8.6-1.6-13.1
		c0,4.5-0.5,8.9-1.6,13.1c-5.9,24.4-27.9,42.5-54,42.5c-26.2,0-48.1-18.1-54-42.5c-0.8-3.1-1.2-6.3-1.4-9.6V54.5H220.6z"/>
	<g style="clip-path:url(#SVGID_00000031181201594276593210000006434047789635782815_);">
		<path class="st23" d="M109.4,65c0,30.7-24.9,55.6-55.6,55.6S-1.8,95.7-1.8,65"/>
		<path class="st23" d="M220.6,65c0,30.7-24.9,55.6-55.6,55.6S109.4,95.7,109.4,65"/>
		<rect x="-1.7" y="-129.6" class="st23" width="222.3" height="207.7"/>
	</g>
	<g style="clip-path:url(#SVGID_00000031181201594276593210000006434047789635782815_);">
		<polygon class="st23" points="287.1,1698.1 82.6,1731.1 66.7,1623.8 271.1,1590.9 		"/>
		<polygon class="st25" points="265.5,1552.8 271.1,1590.9 66.7,1623.8 61.1,1585.7 		"/>
		<line class="st15" x1="125.8" y1="1575.3" x2="93" y2="1619.6"/>
		<line class="st15" x1="182.5" y1="1566.2" x2="149.7" y2="1610.4"/>
		<line class="st15" x1="239.2" y1="1557" x2="206.4" y2="1601.3"/>
		<polygon class="st25" points="46.5,1544.7 59.9,1580.6 253.1,1503.9 239.7,1468 		"/>
		<line class="st15" x1="178.5" y1="1492.3" x2="228.3" y2="1513.8"/>
		<line class="st15" x1="124.9" y1="1513.6" x2="174.7" y2="1535"/>
		<line class="st15" x1="71.3" y1="1534.8" x2="121.1" y2="1556.3"/>
		<line class="st26" x1="107.4" y1="1693.5" x2="252.8" y2="1670.1"/>
		<line class="st26" x1="100.9" y1="1650.7" x2="246.3" y2="1627.2"/>
	</g>
	
		<path style="clip-path:url(#SVGID_00000031181201594276593210000006434047789635782815_);fill:#C8C8C8;stroke:#010101;stroke-width:9;stroke-miterlimit:10;" d="
		M415.9,1781.1c22.7,8.4,45.3,16.8,68,25.2c3.1,10,6.2,20.1,9.3,30.1c-25.3,16.2-50.7,32.3-76,48.5c-9-28.7-18.1-57.4-27.1-86.1
		C398.7,1792.9,407.3,1787,415.9,1781.1z"/>
	
		<path style="clip-path:url(#SVGID_00000031181201594276593210000006434047789635782815_);fill:none;stroke:#010101;stroke-width:9;stroke-linejoin:round;stroke-miterlimit:10;" d="
		M390.1,1798.8c34.1,12.6,68.2,25.3,102.3,37.9"/>
	
		<polyline style="clip-path:url(#SVGID_00000031181201594276593210000006434047789635782815_);fill:none;stroke:#010101;stroke-width:9;stroke-linejoin:round;stroke-miterlimit:10;" points="
		450.7,1794 458.8,1824.5 417.2,1884.9 424.1,1811.6 450.2,1793.8 	"/>
	
		<path style="clip-path:url(#SVGID_00000031181201594276593210000006434047789635782815_);fill:none;stroke:#010101;stroke-width:9;stroke-linejoin:round;stroke-miterlimit:10;" d="
		M462.7,1758.2c8.3-20.8,16.6-41.7,24.9-62.5"/>
	
		<line style="clip-path:url(#SVGID_00000031181201594276593210000006434047789635782815_);fill:#010101;stroke:#010101;stroke-width:9;stroke-miterlimit:10;" x1="425.5" y1="1753.9" x2="410.7" y2="1705.1"/>
	
		<line style="clip-path:url(#SVGID_00000031181201594276593210000006434047789635782815_);fill:#010101;stroke:#010101;stroke-width:9;stroke-miterlimit:10;" x1="492.7" y1="1779.7" x2="536.3" y2="1753.3"/>
	
		<line style="clip-path:url(#SVGID_00000031181201594276593210000006434047789635782815_);fill:none;stroke:#010101;stroke-width:9;stroke-miterlimit:10;" x1="338.9" y1="1604.9" x2="338.9" y2="1939.6"/>
	
		<line style="clip-path:url(#SVGID_00000031181201594276593210000006434047789635782815_);fill:#010101;stroke:#010101;stroke-width:8;stroke-miterlimit:10;" x1="730.4" y1="829.9" x2="1102.1" y2="829.9"/>
	
		<path style="clip-path:url(#SVGID_00000031181201594276593210000006434047789635782815_);fill:none;stroke:#010101;stroke-width:9;stroke-miterlimit:10;" d="
		M1085.2,996.6l-163.1,0l0-165.9c0-0.3,0.4-0.4,0.6-0.2l163.6,163.6C1087.2,995,1086.5,996.6,1085.2,996.6z"/>
	
		<polygon style="clip-path:url(#SVGID_00000031181201594276593210000006434047789635782815_);fill:#676767;stroke:#010101;stroke-width:9;stroke-miterlimit:10;" points="
		922.1,829.9 1088.8,829.9 1088.8,996.6 	"/>
	
		<path style="clip-path:url(#SVGID_00000031181201594276593210000006434047789635782815_);fill:#5478BB;stroke:#010101;stroke-width:9;stroke-miterlimit:10;" d="
		M730.4,829.4h361.3V557.3c0-0.1-0.1-0.3-0.3-0.3h-361V829.4z"/>
	<g style="clip-path:url(#SVGID_00000031181201594276593210000006434047789635782815_);">
		<circle class="st29" cx="991" cy="689.5" r="46.8"/>
		<circle class="st30" cx="971.6" cy="673.3" r="13.6"/>
		<circle class="st29" cx="839.6" cy="689.5" r="46.8"/>
		<circle class="st30" cx="820.2" cy="673.3" r="13.6"/>
	</g>
	
		<rect x="573.2" y="1661.1" style="clip-path:url(#SVGID_00000031181201594276593210000006434047789635782815_);fill:#010101;stroke:#010101;stroke-width:9;stroke-miterlimit:10;" width="513.2" height="270.9"/>
	<g style="clip-path:url(#SVGID_00000031181201594276593210000006434047789635782815_);">
		<path class="st31" d="M621.2,1696.8h6v13.5c0,4.1-1.8,6.8-6.3,6.8c-1.2,0-2-0.1-2.8-0.2l0.3-5.1c0.6,0.1,1,0.2,1.4,0.2
			c1,0,1.4-0.7,1.4-1.7V1696.8z"/>
		<path class="st31" d="M631.6,1706.7c0-6.6,4-10.4,10.2-10.4c6.3,0,10.2,3.8,10.2,10.4s-3.7,10.6-10.2,10.6
			S631.6,1713.3,631.6,1706.7z M646.1,1706.7c0-3.2-1.2-5.2-4.3-5.2s-4.3,2-4.3,5.2c0,3.5,1.2,5.5,4.2,5.5
			C645,1712.2,646.1,1710.2,646.1,1706.7z"/>
		<path class="st31" d="M669.4,1716.8v-7.3h-6.7v7.3h-6v-20h6v7.4h6.7v-7.4h6v20H669.4z"/>
		<path class="st31" d="M689.1,1710.3c-0.8-1.8-2.1-5.3-3-8.1l-0.4,0c0.2,3.1,0.4,7.3,0.4,9.5v5.1h-5.5v-20h8.4l2.4,5.3
			c1,2.3,2.2,5.8,2.9,8.3l0.4-0.1c-0.2-2.9-0.4-6.2-0.4-8.3v-5.3h5.5v20h-7.9L689.1,1710.3z"/>
		<path class="st31" d="M704.4,1711.1l5.7-1.2c0.4,2,2,2.7,3.8,2.7c1.6,0,2.5-0.4,2.5-1.3c0-1-0.7-1.6-4.3-2.2
			c-5.6-0.8-7.3-3.1-7.3-6.6c0-4,2.8-6.3,8.6-6.3c5.7,0,8.1,2.5,8.5,5.8l-6,1.1c-0.3-1.6-1-2.4-2.9-2.4c-1.6,0-2.4,0.5-2.4,1.4
			c0,0.8,0.3,1.4,3.9,2c6.5,1.1,7.7,3.6,7.7,6.6c0,4-2.6,6.4-8.8,6.4C706.7,1717.3,704.7,1714.3,704.4,1711.1z"/>
		<path class="st31" d="M726.3,1706.7c0-6.6,4-10.4,10.2-10.4c6.3,0,10.2,3.8,10.2,10.4s-3.7,10.6-10.2,10.6
			S726.3,1713.3,726.3,1706.7z M740.8,1706.7c0-3.2-1.2-5.2-4.3-5.2s-4.3,2-4.3,5.2c0,3.5,1.2,5.5,4.2,5.5
			C739.6,1712.2,740.8,1710.2,740.8,1706.7z"/>
		<path class="st31" d="M759.8,1710.3c-0.8-1.8-2.1-5.3-3-8.1l-0.4,0c0.2,3.1,0.4,7.3,0.4,9.5v5.1h-5.5v-20h8.4l2.4,5.3
			c1,2.3,2.2,5.8,2.9,8.3l0.4-0.1c-0.2-2.9-0.4-6.2-0.4-8.3v-5.3h5.5v20h-7.9L759.8,1710.3z"/>
		<path class="st31" d="M805.9,1716.8c-0.9,0.2-1.9,0.2-2.7,0.2c-2.5,0-4.9-0.8-7.1-2.1c-1.2,1.5-3.6,2.2-6.3,2.2
			c-3.7,0-6.7-1.8-6.7-5.5c0-3,2-4.6,4.7-5.7c-0.6-1.4-1-2.7-1-3.8c0-4.2,3.4-5.8,6.8-5.8c4.6,0,6.5,1.9,6.5,4.6
			c0,3.6-3.4,4.7-6.4,5.2c1,1.4,2.5,2.7,4.2,3.7c1.4-1.9,2.3-4,2.8-6.3l5,0.7c-0.6,3-2.2,5.2-4.5,6.9c0.8,0.2,1.5,0.3,2.3,0.3
			c0.4,0,1.2,0,2-0.1L805.9,1716.8z M793.2,1712.8c-1.8-1.6-3.4-3.4-4.5-5.2c-0.5,0.7-0.7,1.5-0.7,2.5c0,1.6,0.8,3,3.5,3
			C792.3,1713,792.8,1713,793.2,1712.8z M792.6,1704.3c1.8-0.6,2.7-1.5,2.7-2.8c0-0.8-0.6-1.4-1.6-1.4c-1.2,0-1.7,0.8-1.7,1.8
			C792,1702.7,792.2,1703.5,792.6,1704.3z"/>
		<path class="st31" d="M829.6,1716.8h-8.2l-4.6-20h6.4l1.3,7.9c0.4,2.5,0.7,4.6,1,7h0.5c0.3-2.4,0.5-4.7,0.9-7l1.3-7.9h7.5l1.2,7.9
			c0.4,2.2,0.6,4.5,0.9,7h0.5c0.3-2.3,0.7-4.5,1-7l1.1-7.9h6.1l-4.5,20h-8.6l-1.1-8.5c-0.3-2.1-0.5-4.4-0.7-6.7h-0.5
			c-0.2,2.3-0.5,4.6-0.8,6.7L829.6,1716.8z"/>
		<path class="st31" d="M862.2,1713.2h-6.7l-1,3.6h-6.2l6.5-20h8.3l6.5,20h-6.4L862.2,1713.2z M856.7,1708.8h4.3l-0.7-2.5
			c-0.4-1.5-0.8-3-1.1-4.5h-0.7c-0.4,1.5-0.8,3-1.2,4.5L856.7,1708.8z"/>
		<path class="st31" d="M879,1711.4h8.1v5.3H873v-20h6V1711.4z"/>
		<path class="st31" d="M891.6,1696.8h16v5.2h-9.9v2.7h9.3v4.2h-9.3v2.8h9.9v5.2h-16V1696.8z"/>
		<path class="st31" d="M911.9,1711.1l5.7-1.2c0.4,2,2,2.7,3.8,2.7c1.6,0,2.5-0.4,2.5-1.3c0-1-0.7-1.6-4.3-2.2
			c-5.6-0.8-7.3-3.1-7.3-6.6c0-4,2.8-6.3,8.6-6.3c5.7,0,8.1,2.5,8.5,5.8l-6,1.1c-0.3-1.6-1-2.4-2.9-2.4c-1.6,0-2.4,0.5-2.4,1.4
			c0,0.8,0.3,1.4,3.9,2c6.5,1.1,7.7,3.6,7.7,6.6c0,4-2.6,6.4-8.8,6.4C914.2,1717.3,912.3,1714.3,911.9,1711.1z"/>
		<path class="st31" d="M631.7,1741.8v-11.7h6v12.2c0,5.3-3.3,8.3-9.2,8.3c-6,0-9.2-3-9.2-8.3v-12.2h6v11.7c0,2.3,0.7,3.6,3.2,3.6
			C631,1745.4,631.7,1744.1,631.7,1741.8z"/>
		<path class="st31" d="M651.3,1743.7c-0.8-1.8-2.1-5.3-3-8.1l-0.4,0c0.2,3.1,0.4,7.3,0.4,9.5v5.1h-5.5v-20h8.4l2.4,5.3
			c1,2.3,2.2,5.8,2.9,8.3l0.4-0.1c-0.2-2.9-0.4-6.2-0.4-8.3v-5.3h5.5v20h-7.9L651.3,1743.7z"/>
		<path class="st31" d="M667.4,1750.2v-20h6v20H667.4z"/>
		<path class="st31" d="M683.3,1750.2l-6.5-20h6.4l2.8,10.4c0.4,1.5,0.8,3,1.1,4.4h0.6c0.4-1.5,0.7-2.9,1.2-4.4l2.8-10.4h6.2
			l-6.5,20H683.3z"/>
		<path class="st31" d="M701.3,1730.2h16v5.2h-9.9v2.7h9.3v4.2h-9.3v2.8h9.9v5.2h-16V1730.2z"/>
		<path class="st31" d="M730.5,1744h-2.2v6.2h-6v-20h9.2c5.3,0,8.2,2.2,8.2,7c0,2.9-1.3,4.8-3.4,5.9l4.6,6.7v0.4h-7L730.5,1744z
			 M728.3,1735.2v4.5h2.9c2,0,2.6-0.7,2.6-2.2c0-1.6-0.8-2.2-2.7-2.2H728.3z"/>
		<path class="st31" d="M743.8,1744.5l5.7-1.2c0.4,2,2,2.7,3.8,2.7c1.6,0,2.5-0.4,2.5-1.3c0-1-0.7-1.6-4.3-2.2
			c-5.6-0.8-7.3-3.1-7.3-6.6c0-4,2.8-6.3,8.6-6.3c5.7,0,8.1,2.5,8.5,5.8l-6,1.1c-0.3-1.6-1-2.4-2.9-2.4c-1.6,0-2.4,0.5-2.4,1.4
			c0,0.8,0.3,1.4,3.9,2c6.5,1.1,7.7,3.6,7.7,6.6c0,4-2.6,6.4-8.8,6.4C746.1,1750.7,744.1,1747.7,743.8,1744.5z"/>
		<path class="st31" d="M766.5,1750.2v-20h6v20H766.5z"/>
		<path class="st31" d="M776.8,1730.2h16.6v5.5h-5.3v14.5h-6v-14.5h-5.3V1730.2z"/>
		<path class="st31" d="M803,1750.2v-6.1l-7-13.5v-0.4h6.7l3.1,8.8h0.5l3.2-8.8h6.5v0.4l-7,13.5v6.1H803z"/>
	</g>
	<g style="clip-path:url(#SVGID_00000031181201594276593210000006434047789635782815_);">
		<text transform="matrix(1 0 0 1 726.8384 1790.0012)"><tspan x="0" y="0" class="st31 st32 st33 st34">COLLEGE OF ENGINEERING </tspan><tspan x="0" y="22.9" class="st31 st32 st33 st34">&amp; DESIGN</tspan></text>
	</g>
	
		<line style="clip-path:url(#SVGID_00000031181201594276593210000006434047789635782815_);fill:none;stroke:#FFFFFF;stroke-width:6.7081;stroke-miterlimit:10;" x1="686.7" y1="1782.3" x2="618" y2="1782.3"/>
	
		<rect x="-13.8" y="1776.7" style="clip-path:url(#SVGID_00000031181201594276593210000006434047789635782815_);fill:#7D3B96;stroke:#010101;stroke-width:9;stroke-miterlimit:10;" width="352.8" height="171.1"/>
	
		<path style="clip-path:url(#SVGID_00000031181201594276593210000006434047789635782815_);fill:#FFFFFF;stroke:#FFFFFF;stroke-width:12;stroke-miterlimit:10;" d="
		M249.7,1851.4c-4.6,5.7-32,38.3-76.1,38.3c-44.1,0-71.5-32.6-76.1-38.3c4.6-5.7,32-38.3,76.1-38.3
		C217.7,1813.1,245.1,1845.7,249.7,1851.4z"/>
	
		<circle style="clip-path:url(#SVGID_00000031181201594276593210000006434047789635782815_);fill:#010101;stroke:#010101;stroke-width:12;stroke-miterlimit:10;" cx="173.6" cy="1851.4" r="20"/>
	
		<circle style="clip-path:url(#SVGID_00000031181201594276593210000006434047789635782815_);fill:#FFFFFF;stroke:#FFFFFF;stroke-width:12;stroke-miterlimit:10;" cx="173.6" cy="1851.4" r="6.3"/>
	
		<rect x="824.5" y="1588.1" transform="matrix(-1 -1.224647e-16 1.224647e-16 -1 2033.0576 3209.7815)" style="clip-path:url(#SVGID_00000031181201594276593210000006434047789635782815_);fill:#010101;" width="384.1" height="33.7"/>
	
		<rect x="824.5" y="1519.9" transform="matrix(-1 -1.224647e-16 1.224647e-16 -1 2033.0576 3073.3823)" style="clip-path:url(#SVGID_00000031181201594276593210000006434047789635782815_);fill:#010101;" width="384.1" height="33.7"/>
	
		<rect x="824.5" y="1451.7" transform="matrix(-1 -1.224647e-16 1.224647e-16 -1 2033.0576 2936.9829)" style="clip-path:url(#SVGID_00000031181201594276593210000006434047789635782815_);fill:#010101;" width="384.1" height="33.7"/>
	
		<rect x="824.5" y="1456.1" transform="matrix(-1 -1.224647e-16 1.224647e-16 -1 2033.0576 3123.9468)" style="clip-path:url(#SVGID_00000031181201594276593210000006434047789635782815_);fill:none;stroke:#010101;stroke-width:9;stroke-miterlimit:10;" width="384.1" height="211.8"/>
	
		<path style="clip-path:url(#SVGID_00000031181201594276593210000006434047789635782815_);fill:#C8C8C8;stroke:#010101;stroke-width:9;stroke-miterlimit:10;" d="
		M725.5,944.3c5.8-1.4,28-6.7,49.2,6.6c13.2,8.3,19.7,19.9,22.3,25.4c2.6-0.6,23.7-4.8,41.4,10.1c8.5,7.1,15.5,18.8,17.7,37.8
		c10.9,3,18.8,12.4,19.6,23.2c0.9,12.3-7.6,24.1-20.4,27.4c-60.1,0-120.3,0-180.4,0c-17.6-2.4-30.8-17.2-30.9-34.2
		c-0.2-18.3,14.7-34.3,33.9-35.2c-0.1-5.2,0.2-23.9,14-40.5C704.1,949.9,719.8,945.7,725.5,944.3z"/>
	
		<path style="clip-path:url(#SVGID_00000031181201594276593210000006434047789635782815_);fill:#FFFFFF;stroke:#010101;stroke-width:9;stroke-linejoin:round;stroke-miterlimit:10;" d="
		M677.8,1005.3c0.3,4.2,1.3,11,5,18.5c3.2,6.6,7.3,11.1,10.1,13.9"/>
	
		<path style="clip-path:url(#SVGID_00000031181201594276593210000006434047789635782815_);fill:#FFFFFF;stroke:#010101;stroke-width:9;stroke-miterlimit:10;" d="
		M1111.9,1225c-4.4-0.4-28.4-2.2-47.4,15.2c-10.5,9.6-14.8,20.8-16.6,26.7c-3.8-0.8-35.2-7.1-61.6,15.1
		c-12.7,10.6-23.1,28-26.3,56.3c-16.3,4.5-28,18.5-29.2,34.5c-1.4,18.4,11.3,35.9,30.4,40.8c50.3,0,100.5,0,150.8,0
		C1111.9,1350.8,1111.9,1287.9,1111.9,1225z"/>
	<g style="clip-path:url(#SVGID_00000031181201594276593210000006434047789635782815_);">
		<path class="st23" d="M991.9,1163.4l-33.2,33.2l-38.7-38.7c-9.2-9.2-9.2-24,0-33.2h0c9.2-9.2,24-9.2,33.2,0L991.9,1163.4z"/>
		<path class="st40" d="M925.5,1163.4l33.2,33.2l38.7-38.7c9.2-9.2,9.2-24,0-33.2h0c-9.2-9.2-24-9.2-33.2,0L925.5,1163.4z"/>
	</g>
	<g style="clip-path:url(#SVGID_00000031181201594276593210000006434047789635782815_);">
		<path class="st41" d="M457.2,102.3v57c0,21.7-17.6,39.3-39.3,39.3h-46.2c-1.6,0-2.9,1.3-2.9,2.9c0,1.6,1.3,2.9,2.9,2.9h65.8
			c10.9,0,19.7,8.8,19.7,19.7v25.5c0,10.9-8.8,19.7-19.7,19.7H319.6c-21.7,0-39.3-17.6-39.3-39.3v-57c0-21.7,17.6-39.3,39.3-39.3
			h46.2c1.6,0,2.9-1.3,2.9-2.9s-1.3-2.9-2.9-2.9H300c-10.9,0-19.7-8.8-19.7-19.7V82.6c0-10.9,8.8-19.7,19.7-19.7h117.9
			C439.6,63,457.2,80.5,457.2,102.3z"/>
		<path class="st41" d="M663,102.3V230c0,21.7-17.6,39.3-39.3,39.3h-98.3c-21.7,0-39.3-17.6-39.3-39.3V102.3
			c0-21.7,17.6-39.3,39.3-39.3h98.3C645.4,63,663,80.5,663,102.3z M609.9,166.1c0-1.6-1.3-2.9-2.9-2.9h-24.6c-2.7,0-4.9-2.2-4.9-4.9
			v-24.6c0-1.6-1.3-2.9-2.9-2.9c-1.6,0-2.9,1.3-2.9,2.9v24.6c0,2.7-2.2,4.9-4.9,4.9h-24.6c-1.6,0-2.9,1.3-2.9,2.9s1.3,2.9,2.9,2.9
			h24.6c2.7,0,4.9,2.2,4.9,4.9v21.6c0,1.6,1.3,2.9,2.9,2.9c1.6,0,2.9-1.3,2.9-2.9V174c0-2.7,2.2-4.9,4.9-4.9H607
			C608.6,169.1,609.9,167.8,609.9,166.1z"/>
		<path class="st41" d="M457.2,340.7v57c0,21.7-17.6,39.3-39.3,39.3h-46.2c-1.6,0-2.9,1.3-2.9,2.9c0,1.6,1.3,2.9,2.9,2.9h65.8
			c10.9,0,19.7,8.8,19.7,19.7v25.5c0,10.9-8.8,19.7-19.7,19.7H319.6c-21.7,0-39.3-17.6-39.3-39.3v-57c0-21.7,17.6-39.3,39.3-39.3
			h46.2c1.6,0,2.9-1.3,2.9-2.9s-1.3-2.9-2.9-2.9H300c-10.9,0-19.7-8.8-19.7-19.7V321c0-10.9,8.8-19.7,19.7-19.7h117.9
			C439.6,301.4,457.2,319,457.2,340.7z"/>
		<path class="st41" d="M486.1,488.1v-25.5c0-10.9,8.8-19.7,19.7-19.7h65.8c1.6,0,2.9-1.3,2.9-2.9c0-1.6-1.3-2.9-2.9-2.9h-65.8
			c-10.9,0-19.7-8.8-19.7-19.7v-25.5c0-10.9,8.8-19.7,19.7-19.7h65.8c1.6,0,2.9-1.3,2.9-2.9s-1.3-2.9-2.9-2.9h-65.8
			c-10.9,0-19.7-8.8-19.7-19.7V321c0-10.9,8.8-19.7,19.7-19.7h117.9c21.7,0,39.3,17.6,39.3,39.3v41.3c0,10.9-8.8,19.7-19.7,19.7
			h-6.9c-1.6,0-2.9,1.3-2.9,2.9s1.3,2.9,2.9,2.9h6.9c10.9,0,19.7,8.8,19.7,19.7v41.3c0,21.7-17.6,39.3-39.3,39.3H505.8
			C494.9,507.7,486.1,498.9,486.1,488.1z"/>
	</g>
	
		<rect x="-11.6" y="559.6" style="clip-path:url(#SVGID_00000031181201594276593210000006434047789635782815_);fill:#010101;stroke:#010101;stroke-width:8;stroke-miterlimit:10;" width="742" height="270.3"/>
	<g style="clip-path:url(#SVGID_00000031181201594276593210000006434047789635782815_);">
		<path class="st42" d="M127.6,652.8c0.1,0.7,0.7,1.1,1.4,1.1h7.8c10.2,0,18.5,8.3,18.5,18.5v19.5c0,5.1-4.1,9.3-9.3,9.3h-21.8
			c-5.1,0-9.3-4.1-9.3-9.3v-17.1c0-0.9-0.8-1.5-1.7-1.4c-0.7,0.1-1.1,0.7-1.1,1.4v17.1c0,5.1-4.1,9.3-9.3,9.3H81.3
			c-5.1,0-9.3-4.1-9.3-9.3v-78.8c0-5.1,4.1-9.3,9.3-9.3h55.6c10.2,0,18.5,8.3,18.5,18.5v10.2c0,10.2-8.3,18.5-18.5,18.5H129
			C128.1,651.2,127.5,651.9,127.6,652.8z M115.1,626.2c0-0.8-0.6-1.4-1.4-1.4c-0.8,0-1.4,0.6-1.4,1.4v11.1c0,0.8,0.6,1.4,1.4,1.4
			c0.8,0,1.4-0.6,1.4-1.4V626.2z"/>
		<path class="st42" d="M245.9,634.5h-31c-0.8,0-1.4,0.6-1.4,1.4s0.6,1.4,1.4,1.4h31c5.1,0,9.3,4.1,9.3,9.3v12
			c0,5.1-4.1,9.3-9.3,9.3h-31c-0.8,0-1.4,0.6-1.4,1.4c0,0.8,0.6,1.4,1.4,1.4h31c5.1,0,9.3,4.1,9.3,9.3v12c0,5.1-4.1,9.3-9.3,9.3H181
			c-5.1,0-9.3-4.1-9.3-9.3v-78.8c0-5.1,4.1-9.3,9.3-9.3h64.9c5.1,0,9.3,4.1,9.3,9.3v12C255.2,630.3,251,634.5,245.9,634.5z"/>
		<path class="st42" d="M290,695.6l-15.4-36c-2-4.6-3-9.6-3-14.6v-31.8c0-5.1,4.1-9.3,9.3-9.3h21.8c5.1,0,9.3,4.1,9.3,9.3v53.3
			c0,0.8,0.6,1.4,1.4,1.4c0.8,0,1.4-0.6,1.4-1.4v-53.3c0-5.1,4.1-9.3,9.3-9.3h21.8c5.1,0,9.3,4.1,9.3,9.3V645c0,5-1,10-3,14.6
			l-15.4,36c-1.5,3.4-4.8,5.6-8.5,5.6h-29.5C294.8,701.2,291.4,699,290,695.6z"/>
		<path class="st42" d="M445.4,634.5h-31c-0.8,0-1.4,0.6-1.4,1.4s0.6,1.4,1.4,1.4h31c5.1,0,9.3,4.1,9.3,9.3v12
			c0,5.1-4.1,9.3-9.3,9.3h-31c-0.8,0-1.4,0.6-1.4,1.4c0,0.8,0.6,1.4,1.4,1.4h31c5.1,0,9.3,4.1,9.3,9.3v12c0,5.1-4.1,9.3-9.3,9.3
			h-64.9c-5.1,0-9.3-4.1-9.3-9.3v-78.8c0-5.1,4.1-9.3,9.3-9.3h64.9c5.1,0,9.3,4.1,9.3,9.3v12C454.7,630.3,450.5,634.5,445.4,634.5z"
			/>
		<path class="st42" d="M554.5,622.4v69.5c0,5.1-4.1,9.3-9.3,9.3h-21.8c-5.1,0-9.3-4.1-9.3-9.3v-31c0-0.8-0.6-1.4-1.4-1.4
			c-0.8,0-1.4,0.6-1.4,1.4v31c0,5.1-4.1,9.3-9.3,9.3h-21.8c-5.1,0-9.3-4.1-9.3-9.3v-69.5c0-10.2,8.3-18.5,18.5-18.5h46.3
			C546.2,603.9,554.5,612.2,554.5,622.4z M514.1,626.2c0-0.8-0.6-1.4-1.4-1.4c-0.8,0-1.4,0.6-1.4,1.4v11.1c0,0.8,0.6,1.4,1.4,1.4
			c0.8,0,1.4-0.6,1.4-1.4V626.2z"/>
		<path class="st42" d="M570.8,691.9v-78.8c0-5.1,4.1-9.3,9.3-9.3h23.2c5.1,0,9.3,4.1,9.3,9.3v41.7c0,2.6,2.1,4.6,4.6,4.6H645
			c5.1,0,9.3,4.1,9.3,9.3v23.2c0,5.1-4.1,9.3-9.3,9.3h-64.9C575,701.2,570.8,697.1,570.8,691.9z"/>
	</g>
	<g style="clip-path:url(#SVGID_00000031181201594276593210000006434047789635782815_);">
		<g>
			<path class="st31" d="M68.3,763.4l9.9-2.1c0.8,3.4,3.5,4.6,6.6,4.6c2.8,0,4.4-0.6,4.4-2.2c0-1.7-1.2-2.8-7.5-3.8
				c-9.7-1.5-12.7-5.3-12.7-11.4c0-7,4.9-10.9,15-10.9c10,0,14,4.3,14.9,10.1l-10.4,2c-0.6-2.7-1.7-4.1-5-4.1
				c-2.8,0-4.1,0.8-4.1,2.4c0,1.4,0.5,2.5,6.8,3.5c11.3,1.9,13.5,6.3,13.5,11.5c0,7-4.6,11.1-15.3,11.1
				C72.4,774.1,68.9,768.9,68.3,763.4z"/>
			<path class="st31" d="M109.3,738.4H137v9h-17.3v4.6h16.1v7.4h-16.1v4.8H137v9h-27.7V738.4z"/>
			<path class="st31" d="M161.9,761.9c-1.3-3.1-3.6-9.3-5.2-14.1l-0.6,0.1c0.3,5.4,0.7,12.8,0.7,16.5v8.8h-9.6v-34.8h14.6l4.2,9.3
				c1.8,4,3.8,10,5,14.4l0.7-0.1c-0.4-5-0.7-10.9-0.7-14.4v-9.2h9.6v34.8h-13.8L161.9,761.9z"/>
			<path class="st31" d="M191.2,773.2v-34.8h10.4v34.8H191.2z"/>
			<path class="st31" d="M211.1,755.7c0-11.5,7-18.2,17.8-18.2c11,0,17.8,6.7,17.8,18.2s-6.4,18.4-17.8,18.4
				C217.5,774.1,211.1,767.2,211.1,755.7z M236.3,755.6c0-5.6-2-9.1-7.4-9.1c-5.4,0-7.4,3.5-7.4,9.1c0,6,2,9.6,7.4,9.6
				C234.3,765.2,236.3,761.7,236.3,755.6z"/>
			<path class="st31" d="M270.4,762.5h-3.8v10.7h-10.4v-34.8h16c9.2,0,14.3,3.9,14.3,12.2c0,5.1-2.2,8.4-5.9,10.2l8,11.7v0.6h-12.1
				L270.4,762.5z M266.5,747.1v7.8h5c3.4,0,4.5-1.2,4.5-3.9c0-2.8-1.5-3.9-4.7-3.9H266.5z"/>
			<path class="st31" d="M311.5,763.4l9.9-2.1c0.8,3.4,3.5,4.6,6.6,4.6c2.8,0,4.4-0.6,4.4-2.2c0-1.7-1.2-2.8-7.5-3.8
				c-9.7-1.5-12.7-5.3-12.7-11.4c0-7,4.9-10.9,15-10.9c10,0,14,4.3,14.9,10.1l-10.4,2c-0.6-2.7-1.7-4.1-5-4.1
				c-2.8,0-4.1,0.8-4.1,2.4c0,1.4,0.5,2.5,6.8,3.5c11.3,1.9,13.5,6.3,13.5,11.5c0,7-4.6,11.1-15.3,11.1
				C315.5,774.1,312.1,768.9,311.5,763.4z"/>
			<path class="st31" d="M374.5,773.2v-12.7h-11.6v12.7h-10.4v-34.8h10.4v12.8h11.6v-12.8h10.4v34.8H374.5z"/>
			<path class="st31" d="M394.3,755.7c0-11.5,7-18.2,17.8-18.2c11,0,17.8,6.7,17.8,18.2s-6.4,18.4-17.8,18.4
				C400.8,774.1,394.3,767.2,394.3,755.7z M419.6,755.6c0-5.6-2-9.1-7.4-9.1c-5.4,0-7.4,3.5-7.4,9.1c0,6,2,9.6,7.4,9.6
				C417.5,765.2,419.6,761.7,419.6,755.6z"/>
			<path class="st31" d="M458.4,773.2h-14.2l-8-34.8h11.2l2.3,13.8c0.7,4.3,1.3,8.1,1.7,12.1h0.9c0.5-4.2,0.9-8.2,1.6-12.1l2.3-13.8
				h13.1l2.1,13.8c0.6,3.9,1.1,7.9,1.5,12.1h0.9c0.5-4,1.2-7.8,1.7-12.1l2-13.8h10.6l-7.8,34.8h-15l-1.9-14.8
				c-0.5-3.7-0.8-7.7-1.2-11.7h-0.8c-0.3,3.9-0.9,8-1.3,11.7L458.4,773.2z"/>
			<path class="st31" d="M494.3,755.7c0-11.7,7-18.2,17.6-18.2c9.3,0,15,4.8,15.9,13.8l-10,1.9c-0.7-4.4-2.3-6.6-6.3-6.6
				c-5,0-6.9,4.2-6.9,9.1c0,5.9,1.9,9.5,6.8,9.5c4.2,0,5.6-2.3,6.5-6.7l9.9,1.6c-1,9.1-6.8,14-16.2,14
				C500.8,774.1,494.3,767.4,494.3,755.7z"/>
			<path class="st31" d="M556.7,766.9H545l-1.7,6.3h-10.7l11.3-34.8h14.5l11.3,34.8h-11.2L556.7,766.9z M547.1,759.4h7.5l-1.2-4.3
				c-0.7-2.6-1.4-5.2-2-7.8h-1.2c-0.6,2.6-1.3,5.2-2,7.8L547.1,759.4z"/>
			<path class="st31" d="M574.8,763.4l9.9-2.1c0.8,3.4,3.5,4.6,6.6,4.6c2.8,0,4.4-0.6,4.4-2.2c0-1.7-1.2-2.8-7.5-3.8
				c-9.7-1.5-12.7-5.3-12.7-11.4c0-7,4.9-10.9,15-10.9c10,0,14,4.3,14.9,10.1l-10.4,2c-0.6-2.7-1.7-4.1-5-4.1
				c-2.8,0-4.1,0.8-4.1,2.4c0,1.4,0.5,2.5,6.8,3.5c11.3,1.9,13.5,6.3,13.5,11.5c0,7-4.6,11.1-15.3,11.1
				C578.9,774.1,575.5,768.9,574.8,763.4z"/>
			<path class="st31" d="M615.8,738.4h27.7v9h-17.3v4.6h16.1v7.4h-16.1v4.8h17.3v9h-27.7V738.4z"/>
		</g>
	</g>
	
		<rect x="-6.4" y="835.3" style="clip-path:url(#SVGID_00000031181201594276593210000006434047789635782815_);fill:#010101;stroke:#010101;stroke-width:8;stroke-miterlimit:10;" width="344.8" height="620.4"/>
	
		<line style="clip-path:url(#SVGID_00000031181201594276593210000006434047789635782815_);fill:none;stroke:#010101;stroke-width:8;stroke-miterlimit:10;" x1="338.4" y1="1303.5" x2="338.4" y2="1104.6"/>
	<path style="clip-path:url(#SVGID_00000031181201594276593210000006434047789635782815_);fill:#676767;" d="M283.8,1176.8
		c-18.8-70.1,43.7-137.2,48.6-142.4c116.1,64.1,232.3,128.2,348.4,192.3c8.4,18.7,16.7,37.3,25.1,56c-61.2-3.9-122.4-7.8-183.6-11.7
		C407.6,1306.9,303.5,1250.6,283.8,1176.8z"/>
	
		<path style="clip-path:url(#SVGID_00000031181201594276593210000006434047789635782815_);fill:none;stroke:#010101;stroke-width:9;stroke-linejoin:round;stroke-miterlimit:10;" d="
		M338.4,1152.7c0,38.5,0,77.1,0,115.6c125.5,3.6,251,7.2,376.5,10.8c11.5-14.4,23-28.9,34.5-43.3c-137-133.5-274-267-410.9-400.5
		c0,71.6,0,143.3,0,214.9"/>
	
		<path style="clip-path:url(#SVGID_00000031181201594276593210000006434047789635782815_);fill:none;stroke:#010101;stroke-width:9;stroke-miterlimit:10;" d="
		M693.7,1230.4c-128.3-69.1-256.5-138.2-384.8-207.2"/>
	
		<path style="clip-path:url(#SVGID_00000031181201594276593210000006434047789635782815_);fill:#F04924;stroke:#010101;stroke-width:9;stroke-linejoin:round;stroke-miterlimit:10;" d="
		M653.8,1455.7H24c0-173.9,141-314.9,314.9-314.9C512.8,1140.8,653.8,1281.7,653.8,1455.7z"/>
	
		<path style="clip-path:url(#SVGID_00000031181201594276593210000006434047789635782815_);fill:#FFFFFF;stroke:#010101;stroke-width:8;stroke-linejoin:round;stroke-miterlimit:10;" d="
		M595.5,1455.7H81.4c0-142,115.1-257.1,257.1-257.1C480.4,1198.6,595.5,1313.7,595.5,1455.7z"/>
	
		<pattern  id="SVGID_00000095305380136854329930000009993184369701993127_" xlink:href="#New_Pattern" patternTransform="matrix(0.156 0 0 0.156 -8210.5107 -6009.7891)">
	</pattern>
	
		<path style="clip-path:url(#SVGID_00000031181201594276593210000006434047789635782815_);fill:url(#SVGID_00000095305380136854329930000009993184369701993127_);stroke:#010101;stroke-width:9;stroke-miterlimit:10;" d="
		M338.4,1198.6c142,0,257.1,115.1,257.1,257.1H81.4C81.4,1313.7,196.5,1198.6,338.4,1198.6"/>
	
		<path style="clip-path:url(#SVGID_00000031181201594276593210000006434047789635782815_);fill:#FFFFFF;stroke:#010101;stroke-width:9;stroke-linejoin:round;stroke-miterlimit:10;" d="
		M401,1455.7c-33.6,0-60.9,26.7-62.1,60c-1.1-33.3-28.5-60-62.1-60c33.6,0,60.9-26.7,62.1-60C340,1429,367.4,1455.7,401,1455.7z"/>
	<g style="clip-path:url(#SVGID_00000031181201594276593210000006434047789635782815_);">
		<polygon class="st46" points="232.9,1205 145.1,1032.6 440.2,962.3 463.4,1007.7 		"/>
		<path class="st47" d="M473,1026.7l-42.5-83.4l72.2-36.7c33.5-17,71.5-22.8,108.5-16.3l8.1,1.4c5.9,1,9.2,7.4,6.5,12.8l-3.6,7.4
			c-16.5,33.7-43.6,61.1-77,78.2L473,1026.7z"/>
		<path class="st23" d="M468.3,1072.7l-5.5-10.9c-6.7-13.1-1.5-29.2,11.7-35.9l45.3-23.1l5.5,10.9c6.7,13.1,1.5,29.2-11.7,35.9
			L468.3,1072.7z"/>
		<path class="st23" d="M390.6,920l5.5,10.9c6.7,13.1,22.7,18.3,35.9,11.7l45.3-23.1l-5.5-10.9c-6.7-13.1-22.7-18.3-35.9-11.7
			L390.6,920z"/>
		<circle class="st23" cx="536.4" cy="941.9" r="9.8"/>
		<line class="st48" x1="502.7" y1="959.1" x2="424.5" y2="998.9"/>
		<path class="st48" d="M558.3,886.5c11.8,23.2,23.6,46.4,35.5,69.6"/>
		<polygon class="st1" points="565,889.3 571,906.6 585.7,935.4 595.2,951.3 612.2,927.5 623.9,898 597.1,889 		"/>
	</g>
	
		<polygon style="clip-path:url(#SVGID_00000031181201594276593210000006434047789635782815_);fill:#E46BA8;stroke:#010101;stroke-width:9;stroke-miterlimit:10;" points="
		283.8,1534.2 -6.4,1455.6 -6.4,835.3 283.8,913.8 	"/>
	
		<polygon style="clip-path:url(#SVGID_00000031181201594276593210000006434047789635782815_);fill:#010101;stroke:#010101;stroke-width:9;stroke-miterlimit:10;" points="
		250.4,1242.2 220.4,1233.6 220.4,1155.5 250.4,1164.2 	"/>
	
		<line style="clip-path:url(#SVGID_00000031181201594276593210000006434047789635782815_);fill:#FFFFFF;stroke:#010101;stroke-width:9;stroke-linejoin:round;stroke-miterlimit:10;" x1="235.4" y1="1193.2" x2="166" y2="1176.5"/>
	<polygon style="clip-path:url(#SVGID_00000031181201594276593210000006434047789635782815_);fill:#E46BA8;" points="175.1,1212.6 
		145.1,1203.9 145.1,1125.8 175.1,1134.5 	"/>
	
		<line style="clip-path:url(#SVGID_00000031181201594276593210000006434047789635782815_);fill:#010101;stroke:#010101;stroke-width:9;stroke-miterlimit:10;" x1="338.4" y1="1140.8" x2="338.4" y2="1395.7"/>
	
		<path style="clip-path:url(#SVGID_00000031181201594276593210000006434047789635782815_);fill:#010101;stroke:#010101;stroke-width:9;stroke-miterlimit:10;" d="
		M799,1373.2l-34.2-37.9c-1.4-1.6-3.5-2.3-5.6-2l-50.6,6.6c-5.2,0.7-9-4.9-6.3-9.5l25.5-44.2c1-1.8,1.1-4,0.2-5.9l-22-46.1
		c-2.3-4.8,1.9-10.1,7.1-9l49.9,10.6c2,0.4,4.2-0.2,5.7-1.6l37-35.1c3.8-3.6,10.2-1.3,10.7,3.9l5.4,50.7c0.2,2.1,1.5,3.9,3.3,4.9
		l44.8,24.4c4.6,2.5,4.4,9.3-0.4,11.4l-46.6,20.8c-1.9,0.9-3.3,2.6-3.7,4.7l-9.3,50.2C809,1375.3,802.5,1377.1,799,1373.2z"/>
	
		<path style="clip-path:url(#SVGID_00000031181201594276593210000006434047789635782815_);fill:#FBAD18;stroke:#010101;stroke-width:9;stroke-miterlimit:10;" d="
		M773.7,1365.6l-34.2-37.9c-1.4-1.6-3.5-2.3-5.6-2l-50.6,6.6c-5.2,0.7-9-4.9-6.3-9.5l25.5-44.2c1-1.8,1.1-4,0.2-5.9l-22-46.1
		c-2.3-4.8,1.9-10.1,7.1-9l49.9,10.6c2,0.4,4.2-0.2,5.7-1.6l37-35.1c3.8-3.6,10.2-1.3,10.7,3.9l5.4,50.7c0.2,2.1,1.5,3.9,3.3,4.9
		l44.8,24.4c4.6,2.5,4.4,9.3-0.4,11.4l-46.6,20.8c-1.9,0.9-3.3,2.6-3.7,4.7l-9.3,50.2C783.7,1367.7,777.2,1369.6,773.7,1365.6z"/>
	
		<polygon style="clip-path:url(#SVGID_00000031181201594276593210000006434047789635782815_);fill:#010101;stroke:#010101;stroke-width:9;stroke-linejoin:round;stroke-miterlimit:10;" points="
		766,1308.3 751.3,1292 729.6,1294.8 740.5,1275.9 731.1,1256.1 752.5,1260.7 768.4,1245.6 770.7,1267.4 789.9,1277.8 769.9,1286.7 
			"/>
	
		<line style="clip-path:url(#SVGID_00000031181201594276593210000006434047789635782815_);fill:#FFFFFF;stroke:#010101;stroke-width:9;stroke-miterlimit:10;" x1="786.9" y1="1190" x2="812.1" y2="1197.7"/>
	
		<path style="clip-path:url(#SVGID_00000031181201594276593210000006434047789635782815_);fill:#010101;stroke:#010101;stroke-width:9;stroke-miterlimit:10;" d="
		M679.6,1331.7c9.7,2.7,19.4,5.5,29.2,8.2"/>
	
		<path style="clip-path:url(#SVGID_00000031181201594276593210000006434047789635782815_);fill:#010101;stroke:#010101;stroke-width:9;stroke-miterlimit:10;" d="
		M777.6,1367.7c8.4,2.5,16.8,5,25.2,7.6"/>
	<polygon style="clip-path:url(#SVGID_00000031181201594276593210000006434047789635782815_);fill:#010101;" points="805.8,1209.3 
		804.7,1197.4 793.6,1195.1 794.2,1210.2 	"/>
	<g style="clip-path:url(#SVGID_00000031181201594276593210000006434047789635782815_);">
		<path class="st51" d="M449.3,1502.6h24.4c5.7,0,10.4,4.6,10.4,10.4v88.1c0,5.7-4.6,10.4-10.4,10.4h-72.5
			c-5.7,0-10.4-4.6-10.4-10.4v-33.7c0-5.7,4.6-10.4,10.4-10.4h24.4c5.7,0,10.4,4.6,10.4,10.4v11.4c0,0.9,0.7,1.6,1.6,1.6
			s1.6-0.7,1.6-1.6V1513C438.9,1507.2,443.5,1502.6,449.3,1502.6z"/>
		<path class="st51" d="M502.3,1548.5V1513c0-5.7,4.6-10.4,10.4-10.4h24.4c5.7,0,10.4,4.6,10.4,10.4v25.4c0,0.9,0.7,1.6,1.6,1.6
			s1.6-0.7,1.6-1.6V1513c0-5.7,4.6-10.4,10.4-10.4h22.8c5.7,0,10.4,4.6,10.4,10.4v25.4c0,0.9,0.7,1.6,1.6,1.6s1.6-0.7,1.6-1.6V1513
			c0-5.7,4.6-10.4,10.4-10.4h25.9c5.7,0,10.4,4.6,10.4,10.4v35.5c0,5.6-1.1,11.2-3.4,16.3l-17.3,40.3c-1.6,3.8-5.4,6.3-9.5,6.3
			h-29.4c-5.7,0-10.4-4.6-10.4-10.4v-22.3c0-0.9-0.7-1.6-1.6-1.6s-1.6,0.7-1.6,1.6v22.3c0,5.7-4.6,10.4-10.4,10.4h-27.9
			c-4.1,0-7.9-2.5-9.5-6.3l-17.3-40.3C503.4,1559.7,502.3,1554.1,502.3,1548.5z"/>
		<path class="st51" d="M672.5,1502.6h24.4c5.7,0,10.4,4.6,10.4,10.4v59.6c0,0.9,0.7,1.6,1.6,1.6s1.6-0.7,1.6-1.6V1513
			c0-5.7,4.6-10.4,10.4-10.4h24.4c5.7,0,10.4,4.6,10.4,10.4v77.7c0,11.4-9.3,20.7-20.7,20.7h-52.2c-11.4,0-20.7-9.3-20.7-20.7V1513
			C662.1,1507.2,666.7,1502.6,672.5,1502.6z"/>
	</g>
</g>
</svg>
